<svg>
<path fill-rule="nonzero" width={16} height= {16} d="M8.003 0A8.005 8.005 0 0 0 0 8.003C0 12.42 3.585 16 8.003 16A7.996 7.996 0 0 0 16 8.003C16 3.585 12.42 0 8.003 0zM5.337 4.11c.02 0 .04-.001.06.005l1.45.437c.189.056.31.308.304.497l-.033 1.073c.007.37-.152.435-.454.51l-.62.082.078.432c.102.687.334 1.205.775 1.814.494.567.942.907 1.598 1.172l.415.183.238-.57c.147-.268.244-.402.608-.304l1.073.232c.19.04.405.216.415.41l.077 1.476c.009.167-.178.298-.487.32a5.764 5.764 0 0 1-4.927-2.162v-.005c-1.223-1.537-1.523-3.498-.94-5.21.085-.252.227-.394.37-.393z" />
</svg>