<svg xmlns="http://www.w3.org/2000/svg" width="148" height="40" viewBox="0 0 148 40">
    <g fill="none" fill-rule="evenodd">
        <path fill="#FCD20A" fill-rule="nonzero" d="M38.777 22.839c-1.13 1.096-2.682 1.42-3.328.774-.646-.645-.323-2.226.808-3.323 1.13-1.096 2.65-1.451 3.296-.806.646.613.355 2.258-.776 3.355"/>
        <path fill="#FCD800" fill-rule="nonzero" d="M43.366 22.677c-.808.904-1.907 1.226-2.456.775-.517-.452-.323-1.646.485-2.549.808-.87 1.939-1.29 2.456-.838.549.483.323 1.71-.485 2.612"/>
        <path fill="#F8A81B" fill-rule="nonzero" d="M24.3 17.032c-1.518-.322-3.619.194-5.073 1.613-1.519 1.484-2.617 3.549-2.003 5.226.226.677 1.228 1.355 2.003 1.387 1.551.065 3.328-.645 4.524-1.742 1.293-1.193 2.004-2.935 2.036-4.193 0-.29 0-.452-.065-.775-.129-.71-.84-1.387-1.422-1.516"/>
        <path fill="#F9BB16" fill-rule="nonzero" d="M32.573 23c-1.519 1.452-3.749 1.968-4.621 1.129-.873-.87-.355-3 1.163-4.452 1.487-1.451 3.62-1.806 4.46-.935.872.839.484 2.806-1.002 4.258"/>
        <path fill="#F7A51C" fill-rule="nonzero" d="M29.89 19.129c.518-.42 1.1-.742 1.584-.774a7.203 7.203 0 0 0-1.583.774"/>
        <path fill="#FCD20A" fill-rule="nonzero" d="M42.493 15.903c-.937 1.258-2.423 1.807-3.166 1.29-.744-.516-.744-2.128.161-3.387.937-1.258 2.456-1.903 3.2-1.387.743.516.743 2.226-.195 3.484"/>
        <path fill="#FCD800" fill-rule="nonzero" d="M46.08 17.258c-.743 1.032-1.842 1.516-2.456 1.097-.614-.42-.517-1.645.227-2.678.743-1 1.874-1.58 2.488-1.16.582.418.485 1.741-.259 2.741"/>
        <path fill="#F9B517" fill-rule="nonzero" d="M30.408 11.903c-1.874 2.258-4.75 3.162-5.978 2-1.422-1.387-1.487-3.58.614-6.226 2.262-2.838 4.782-2.967 6.107-1.903 1.293 1.065 1.131 3.871-.743 6.13"/>
        <path fill="#FAC113" fill-rule="nonzero" d="M37.42 14.129c-1.39 2.323-3.522 2.355-4.46 1.613-.936-.774-.678-2.968.68-4.58 1.357-1.614 3.49-2.259 4.362-1.388.71.71.484 2.549-.582 4.355"/>
        <path fill="#F7A51C" fill-rule="nonzero" d="M24.526 4.484"/>
        <path fill="#F7A11C" fill-rule="nonzero" d="M22.362.42C17.45-1.646 12.506 5 12.893 8.741c.324 2.87 2.133 4.032 4.718 3.645.033-.032.097-.032.13-.032 2.714-.355 4.976-2.58 6.01-4.516a7.536 7.536 0 0 0 .743-2.323c.033-.322.065-.677.065-1-.032-1.774-.679-3.451-2.197-4.097"/>
        <path fill="#F7991D" fill-rule="nonzero" d="M12.053 15.29c-1.13.194-2.197.645-3.167 1.29-1.583.936-2.876 2.162-3.651 3.646-.937 1.806-.808 3.451-.032 4.58.355.613.872.968 1.357 1.194.258.097.55.194.84.258.84.194 1.81.194 2.876-.097 3.102-.838 6.657-4.226 6.624-7.42.033-3.128-2.262-4-4.847-3.45"/>
        <path fill="#FCD800" fill-rule="nonzero" d="M42.461 27.613c-.872.839-1.971 1.097-2.488.613-.485-.484-.226-1.645.646-2.484.873-.839 2.004-1.161 2.52-.677.518.483.195 1.71-.678 2.548"/>
        <path fill="#FCD20A" fill-rule="nonzero" d="M37.097 29.194c-1.163 1.032-2.65 1.29-3.264.612-.581-.677-.13-2.064 1.067-3.096 1.195-1 2.585-1.29 3.199-.613.614.71.194 2.064-1.002 3.097"/>
        <path fill="#F9BD15" fill-rule="nonzero" d="M29.923 31.387c-1.583 1.355-3.554 1.71-4.362.807-.808-.904-.162-2.742 1.422-4.097 1.583-1.355 3.457-1.71 4.265-.807.84.904.259 2.742-1.325 4.097"/>
        <path fill="#F9A81A" fill-rule="nonzero" d="M21.101 28.355c-3.167-.903-8.175 3.129-7.464 6.29.161.71 1.163 1.355 1.939 1.452 3.166.322 6.72-3.032 6.915-5.452-.032-.29-.032-.548-.032-.839-.097-.71-.808-1.29-1.358-1.451"/>
        <path fill="#F79A1D" fill-rule="nonzero" d="M12.603 31.871c-.582-2.387-3.49-2.194-5.43-1.645a9.039 9.039 0 0 0-2.132.806 10.01 10.01 0 0 0-2.585 1.807c-.937.903-2.52 2.903-2.197 4.838.323 2.033 2.908 2.646 5.202 2.097 2.78-.613 8.014-4.193 7.142-7.903"/>
        <path fill="#FF0006" fill-rule="nonzero" d="M61.171 15.161c-.42-1.226-.388-2.935-2.423-2.903-2.004.065-2.941 1.355-2.941 2.936 0 2.548 6.463 3.032 6.948 8.193.29 3.097-2.715 8.194-8.758 8.258-2.456 0-5.525-1.097-5.558-6.258l4.363-.935c.032 1.29-.065 3.613 2.423 3.613 1.907 0 2.876-1.775 3.038-3.194.355-3.226-6.85-4.161-6.818-8.29.064-3.871 2.552-7.84 8.498-7.807 5.914.032 5.106 5.323 5.106 5.323L61.17 15.16z"/>
        <path fill="#FF0006" d="M70.09 18.484l-2.327 9.161c.517.807 1.164 1.226 2.004 1.194.517.032 1.034-.194 1.519-.742.484-.549.969-1.613 1.357-3.258l.905-3.549c.387-1.613.484-2.71.258-3.225-.226-.549-.614-.807-1.13-.742-.809-.033-1.649.354-2.586 1.16zm-2.844-3.774h3.49l-.517 2.032h.065c.517-.548 1.163-1.065 2.036-1.548.872-.484 1.712-.742 2.585-.775 1.454 0 2.391.581 2.779 1.71.388 1.13.29 2.774-.291 4.936l-1.034 4.064c-.517 2.13-1.26 3.806-2.23 4.936-.937 1.129-2.165 1.677-3.619 1.71a2.894 2.894 0 0 1-1.486-.42c-.517-.29-1.131-.742-1.842-1.42l-2.36 9.29h-3.748l6.172-24.515zM100.24 20.484h-3.781l.193-.742c.162-.645.065-1.13-.258-1.484-.29-.323-.808-.516-1.487-.516-.678 0-1.26.161-1.745.516-.484.323-.807.839-1.001 1.484l-1.68 6.645c-.162.645-.065 1.13.226 1.484.323.323.807.484 1.486.484.679 0 1.26-.161 1.745-.484.485-.323.808-.839.97-1.484l.258-1.032h3.813v.064c-.582 2.194-1.519 3.807-2.811 4.807-1.293 1.032-2.909 1.516-4.815 1.484-1.907.032-3.296-.484-4.072-1.484-.808-1.032-.905-2.613-.388-4.807l1.164-4.677c.581-2.194 1.519-3.807 2.811-4.807 1.325-1.032 2.908-1.516 4.815-1.516 1.874-.032 3.2.484 4.007 1.452.872.935 1.034 2.484.55 4.613M113.811 24h-8.272l-.55 2.226c-.193.839-.129 1.42.194 1.806.324.387.808.58 1.455.58.807-.031 1.421-.225 1.874-.677.485-.451.775-1 .937-1.677h3.813c-.517 1.742-1.422 3.097-2.682 4.032-1.26.968-2.844 1.42-4.75 1.452-1.842-.032-3.167-.548-3.975-1.58-.808-1.033-1.002-2.485-.582-4.356l1.39-5.451c.485-1.839 1.422-3.29 2.747-4.323 1.357-1.032 2.94-1.58 4.782-1.58 1.777.032 3.102.548 3.942 1.548.84 1.032 1.067 2.387.68 4.129L113.81 24zm-7.497-3.129h4.46l.226-.936c.194-.741.162-1.322-.097-1.774-.258-.42-.775-.645-1.551-.645-.776 0-1.39.226-1.842.645-.485.452-.808 1.033-.97 1.774l-.226.936zM136.528 24h-8.272l-.55 2.226c-.193.839-.129 1.42.194 1.806.324.387.808.58 1.455.58.807-.031 1.421-.225 1.906-.677.453-.451.743-1 .905-1.677h3.813c-.517 1.742-1.422 3.097-2.65 4.032-1.26.968-2.811 1.42-4.75 1.452-1.842-.032-3.167-.548-3.975-1.58-.807-1.033-1.001-2.485-.581-4.356l1.357-5.483c.485-1.84 1.422-3.29 2.747-4.323 1.357-1.032 2.94-1.58 4.782-1.58 1.81.032 3.102.548 3.943 1.548.84 1.032 1.066 2.387.646 4.129l-.97 3.903zm-7.464-3.129h4.46l.225-.936c.194-.741.162-1.322-.097-1.774-.258-.42-.775-.645-1.518-.645-.776 0-1.39.226-1.875.645-.484.452-.807 1.033-1.001 1.774l-.194.936zM140.859 18.58h-1.972l.776-3.128h1.971l1.454-5.807h3.813l-1.454 5.807h2.456l-.775 3.129h-2.456l-2.133 8.548c-.097.42-.032.71.258.936.259.193.647.322 1.164.322.258 0 .517-.032.775-.032l-.808 3.258c-.743.097-1.486.161-2.23.161-1.26 0-2.197-.258-2.778-.742-.582-.516-.744-1.387-.485-2.58l2.424-9.871z"/>
        <path fill="#FF0006" fill-rule="nonzero" d="M117.01 26.29l2.715-10.742 1.486-5.903h3.813l-1.486 5.903-4.621 17.807c-.582 2.193-1.519 3.774-2.811 4.774-1.293 1.032-2.909 1.516-4.815 1.516-1.939 0-3.296-.484-4.072-1.516-.808-1.032-.937-2.613-.388-4.806l3.846-.033-.291 1c-.13.645-.065 1.13.259 1.452.323.323.807.516 1.486.516.679 0 1.26-.193 1.745-.516.485-.323.808-.807 1.002-1.452l.355-1.355 1.777-6.645z"/>
        <path fill="#FF0006" d="M82.208 14.71h3.813l-4.2 16.71h-3.814zM86.441 13.161h-3.78l.872-3.516h3.78z"/>
    </g>
</svg>